<?xml version="1.0" encoding="UTF-8"?>
<svg id="Layer_2" data-name="Layer 2" xmlns="http://www.w3.org/2000/svg" viewBox="0 0 1143.93 403.72">
  <defs>
    <style>
      .cls-1 {
        fill: #242424;
      }

      .cls-1, .cls-2, .cls-3, .cls-4, .cls-5, .cls-6 {
        stroke-width: 0px;
      }

      .cls-2 {
        fill: #f3ede1;
      }

      .cls-3 {
        fill: #4369f6;
      }

      .cls-4 {
        fill: #6271f9;
      }

      .cls-5 {
        fill: #8e7bfa;
      }

      .cls-6 {
        fill: #fff;
      }
    </style>
  </defs>
  <g id="Layer_1-2" data-name="Layer 1">
    <g>
      <path class="cls-3" d="M427.08,138.17c1.09,1.12,2.78,2.05,3.17,3.38,1.63,5.47,3.95,10.83,3.18,16.81-.11.87,1.09,1.91,1.52,2.6-1.28.91-2.81,2-4.35,3.09.04.5.09,1,.13,1.5,2.37.29,4.75.58,7.74.95.46,2.75.81,5.85,1.51,8.87.74,3.16,1.35,6.93,7.43,3.02-2.46,2.61-3.96,3.8-4.83,5.34-.32.56.83,1.96,1.34,2.96.05.11.3.11.46.17-.34.92-.88,1.82-.98,2.77-.42,3.98-2.08,6.21-6.54,5.98-1.28-.07-2.64,1.51-3.96,2.33,1.41.28,2.81.61,4.23.82,2,.3,4.02.5,6.1,1.75-1.24.62-2.48,1.23-3.69,1.84.16,9.69-8.94,7.89-13.75,11.36-.11.08-.1.3-.25.78,5.8,2.22,9.29-3.03,13.63-4.48,2.24,2.69,4.65,4.9,6.06,7.62.64,1.23-.18,3.9-1.23,5.2-2.71,3.35-5.91,6.29-8.92,9.4.23.44.47.89.7,1.33,1.51-.11,3.09-.54,4.52-.26,2.58.51,5.16,1.11,5.11,4.83-.05,3.67-1.85,4.47-5.07,4.31-2.08-.11-4.19.37-6.28.58-.2.52-.4,1.04-.6,1.57,2.48,1.28,4.94,2.6,7.45,3.82.87.42,2.1.31,2.77.89,2,1.77-1.31,16.01-3.85,17.15-1.48.66-2.89,1.48-5.01,2.58,1.82,1.22,3.16,2.12,4.05,2.72.7,9.45-2.38,17.05-12.62,21.01,2.46.66,4.91,1.32,8.51,2.28-1.7,1.3-3.11,2.77-4.82,3.56-2.05.95-4.37,1.33-6.58,1.95-1.1-.25-2.64-.12-3.24-.81-3.79-4.35-8.41-4.65-13.51-3.24-5.99-2.07-11.98-3.5-17.94.11-1.69.28-3.39.56-5.08.84-2-.01-3.99-.03-5.99-.04.04-1.94-.26-3.95.18-5.8,1.92-8.15,4.57-16.16,6.01-24.39,3.73-21.31,3.23-42.8-1.78-63.69-3.16-13.19-8.34-26.22-14.66-38.25-7.31-13.92-17.33-26.21-29.09-37.01-12.28-11.29-25.26-21.48-40.53-28.28-8.37-3.73-17.08-6.79-25.84-9.54-7.07-2.22-14.44-3.48-21.64-5.3-1.37-.35-2.57-1.36-3.85-2.07,4.66-2.39,9.28-4.87,14-7.14,2.97-1.43,7.04-1.75,8.94-3.98,3.83-4.5,6.49-2.65,9.77.1.9.75,2.24.99,3.38,1.46.31-.37.62-.75.92-1.12-.84-1.46-1.45-3.16-2.58-4.34-2.06-2.15-1.99-4,.66-5.04,2.31-.9,4.91-1.27,7.4-1.4,1.66-.09,3.36.65,6.85,1.42-1.79-4.94-2.15-9.53-4.61-11.57-1.9-1.58-6.5-.25-9.79.34-2.05.37-3.84,1.95-5.86,2.68-1.66.6-3.47.96-5.24,1.06-2.92.16-5.86.02-8.79,0-1.27,0-2.55,0-5,0,2.26-1.99,3.37-2.97,4.48-3.95-.09-.09-.19-.18-.28-.27-11.68,6.78-23.37,13.57-35.05,20.35-1.57-.66-3.14-1.32-4.83-2.03v7.4c-.36.19-.72.39-1.08.58-.7.62-1.4,1.24-2.11,1.86,0,0-.04.04-.04.04-.94.75-1.89,1.5-2.83,2.25,0,0,.08-.1.08-.1-1.47.17-2.98.17-4.39.54-6.87,1.79-13.71,3.68-20.56,5.53v.09c-.61-.43-1.24-.86-1.86-1.29l-.32.17c-.89-.37-1.77-.75-2.66-1.12l-6.5-.22c-.61.14-1.22.28-1.83.41-1.66.66-3.32,1.33-4.98,1.99-4.48-1.2-3.83,2.79-5,4.94-.26.3-.53.61-.79.91-.4.81-.8,1.62-1.2,2.43l.16.28-.2.25c-1.12.2-2.43.11-3.34.66-9.4,5.68-19.16,10.9-27.92,17.45-4.56,3.41-10.98,6.16-11.55,13.39l.07-.21c-.72.37-1.45.74-2.17,1.12l.15-.18-2.24,1.43c-10.49,5.47-18.36,17.06-33.69,13.37,1.52,2.79,2.52,4.63,3.71,6.84-4.43,3.17-8.83,6.33-13.18,9.44,1.06,2.15,1.92,3.91,2.5,5.08.69-.2,2-.59,2.51-.74.92,2.38,1.52,3.96,2.13,5.53-.25,2.83-.09,5.78-.81,8.48-2.61,9.71-5.77,19.28-8.23,29.02-1.72,6.84-2.53,13.92-4,20.83-.27,1.29-1.76,2.32-2.69,3.47,1.69-8.92-3.48-15.05-8.8-21-.75-.84-2.75-.49-4.13-.86-4.7-1.28-9.88-1.78-13.94-4.17-5.32-3.15-11.74-2.1-13.18,3.92-1.19,4.97-3.04,7.75-8.7,7-3.11-.41-4.23,2.06-4.35,4.89-.15,3.52-1.64,4.05-4.91,2.85-9.46-3.46-9.96-4.79-3.97-12.96,1.41-1.93,2.2-3.28.05-5.83-1.66-1.97-1.93-5.62-1.83-8.49.23-6.64.86-13.28,1.82-19.85.22-1.52,2.34-2.85,3.76-4.07,2.65-2.27,5.36-4.48,8.19-6.51,1.15-.82,2.7-1.61,4.03-1.55,6.49.31,7.88-3.6,10.24-8.86,1.79-4,7.9-6.58,12.6-8.6,4.63-1.99,6.49-5.02,4.55-9.78-.79-1.93-.18-4.39-.7-6.48-.33-1.3-1.59-2.37-2.5-3.65.91-1.66,2.17-3.92,3.42-6.19-.29-.36-.58-.72-.87-1.08,2.25-.13,4.51-.13,6.72-.5.47-.08.73-1.49,1.08-2.28,1.03-1.26,2.06-2.51,3.09-3.77-.29-.2-.59-.4-.88-.6-.71,1.48-1.43,2.96-2.14,4.44-2.51-.72-5.02-1.44-8.69-2.49,4.53-4.08,8.39-7.55,13.25-11.92-7.14-.76-11.63,5.33-17.42,1.77.54-.35,1.21-.59,1.56-1.05,4.45-5.9,10.89-3.94,16.64-3.99,5.53-.05,8.89-3.25,8.22-8.63-.19-1.48.28-3.05.51-5.16,9.78-3.76,12.88-10.02,7.81-18.17,1.54-.9,3.05-1.82,4.6-2.7,3.93-2.23,9.51-8.03,12.23-12.02,1.17-1.71,3.2-2.83,4.83-4.21.16-.37.32-.74.48-1.11-.5-.02-1-.04-1.5-.07-2.45.68-4.89,1.35-7.34,2.03-.16-.4-.32-.8-.47-1.19,3.89-1.8,7.78-3.61,11.9-5.52,1.85,6.17.04,9.98-7.16,10.67.23.61.46,1.22.68,1.83,2.19-.22,4.7.15,6.51-.8,3.17-1.66,5.63-5.05,8.9-6.04,4.35-1.32,9.18-1.05,13.84-.86-6.4,4.56-14.78,5.16-19.13,13.56,3.22-.74,6.43-1.6,9.68-2.18,3.46-.61,6.99-.86,10.46-1.46,1.16-.2,2.81-.73,3.22-1.6,3-6.23,9.48-7.94,14.59-11.29,3.56-2.33,7.78-3.67,11.75-5.36,3.51-1.5,7.11-3.04,7.99.94,1.25-.7,3.54-1.28,4.56-2.74,1.04-1.5,1.26-3.92.98-5.81-.1-.69-2.67-1.04-4.14-1.48-.4-.12-1.14.21-1.28.02-3.46-4.95-8.42-3.11-13.7-3.97,6.35-4.01,12.7-8.03,19-12.01-1.27-.69-2.96-1.6-5.19-2.8,4.08-1.43,7.69-2.7,11.31-3.95,1.1-.38,2.66-.35,3.25-1.1,4.44-5.61,6.23-.72,8.59,2.03.32-.04.64-.1.96-.13,2.49-.18,4.98-.36,7.47-.54.06.92.5,2.42.12,2.67-2.49,1.64-5.06,3.95-7.8,4.26-5.15.58-7.31,1.17-10.12,5.48,1.46.36,2.95.73,4.56,1.13-4.37,7.31-7.29-1.51-11.55-.53,1.73,2.25-.07,6.19,4.45,6.52.39.03,1.06,2.39.82,3.5-.29,1.32-1.42,2.45-1.66,4.53,3.67-1.64,7.34-3.29,11.01-4.93.2.32.4.64.61.96-.93,1.19-1.86,2.37-3.49,4.46,10.14-.11,16.37-6.77,24.32-10.87-1.88-.38-3.43-.69-5.59-1.13,6.72-2.39,12.86-4.57,19-6.75-.21-.59-.42-1.18-.62-1.77-2.63.93-5.24,1.93-7.9,2.76-2.61.81-5.27,1.44-7.91,2.15l.06.06c3.38-2.11,6.68-4.34,10.14-6.3,10.94-6.19,22.96-7.79,35.37-8.02-6.33,3.26-10.41,10.76-19.57,8.73-2.28-.51-7.96-.65-8.6,5.29-.19,1.73-3.1,3.16-4.85,4.81,2.17,3.21,4.55,2.82,7,1.24,2.51-1.62,4.73-4,7.45-4.88,2.36-.77,5.34-.24,7.83.47.64.18.47,3.21.75,5.64,2.58-1.07,5.76-1.97,8.48-3.61,8.09-4.89,15.97-9.82,26.09-9.52,2.7.08,5.37-2.75,8.24-3.65,1.92-.6,4.25-.54,6.25-.1,2.97.65,5.81,1.9,9.55,3.18,0,1.29,0,3.59,0,5.9-.98.04-1.96.08-2.94.13.08.37.17.74.25,1.11.87-.44,1.75-.88,2.62-1.32,1.42-.16,2.84-.31,5.62-.62-2.24,2.74-3.51,5.07-5.45,6.52-6.06,4.52-12.35,8.74-18.59,13-1.82,1.24-3.83,2.45-4.72-1.02.41-.15.83-.29.25-.09.44-.47.14-.15-.16.17-2.45.36-4.91.71-7.36,1.07-.11-.34-.21-.67-.32-1.01,7.49-4.3,14.98-8.61,22.47-12.91-.33-.61-.66-1.22-.99-1.82-13.63,6.76-27.27,13.52-40.62,20.14,1.63,1.46,1.63,1.51,9.62,1.06,3.71-.21,7.4-.64,11.75-1.03-.6,2.03-.95,3.2-1.64,5.53,10.32-4.85,19.89-9.34,29.45-13.83-.37-.2-.73-.4-1.1-.6.92-1.83,1.42-4.15,2.85-5.41,4.42-3.89,9.2-7.39,13.69-10.92,2.09,1.56,3.57,2.65,5.04,3.75-5.7,6.95-7.63,8.11-18.83,11.03,1.61.8,2.76,1.36,4.1,2.02-1.32,1.95-2.46,3.64-3.66,5.41q-4.53-.49-5.38,3.11c3.68-.87,7.81-3.56,10.09,2.36,1.72-1.25,3.43-2.5,5.15-3.75.44.46.87.91,1.31,1.37-3.01,3.11-6.03,6.22-9.28,9.57,1.07.29,2.35,1.06,3.43.85,7.33-1.45,14.63-3.08,21.91-4.76.43-.1.65-1.1,1.84-3.24-4.7.64-8.23,1.12-11.76,1.6-.14-.42-.29-.83-.43-1.25,5.63-2.71,9.74-8.48,18.68-7.75-2.11,3.04-3.63,5.24-5.73,8.26,2.14,0,3.7.43,4.84-.08,3.96-1.75,7.91-3.59,11.59-5.85,2.61-1.61,4.73-2.05,7.23-.02,2.92,2.38,5.99,4.57,9.1,6.92-6.11,4.61-11.68,8.82-17.26,13.04.47.66.94,1.33,1.41,1.99,4.59-3.29,9.34-6.39,13.73-9.94,2.72-2.2,4.82-3.68,7.92-.6,5.11,5.08,10.81,9.58,15.63,14.91,7.52,8.31,14.63,17,21.61,25.78,1.54,1.94,1.79,4.91,2.64,7.4-.5-.15-.99-.29-1.49-.44-2.13,3.76-4.26,7.51-6.38,11.28-.07.13-.11.38-.03.47,5.92,7.36-2.73,9.44-5.04,13.59h13.99c-.2,1.53-.38,2.87-.71,5.36,3.29-2.72,5.89-4.88,8.49-7.03.47.18.95.35,1.42.53-3.63,4.71-2.13,7.87,2.09,10.41.22.13-.58,1.97-1.26,4.14,3.11-.69,5.64-1.25,8.19-1.81-1.27.66-2.55,1.31-3.82,1.96.34.6.68,1.19,1.02,1.79,1.41-.72,2.82-1.44,4.24-2.16ZM389.78,114.42c.24.22.47.44.71.67,1.6-2.13,3.21-4.27,5.1-6.78-6.06,2.56-11.57,4.91-17.86,3.68-.9-.18-2.29.52-2.98,1.26-3.25,3.47-6.34,7.1-9.85,11.08,3.55,2.08,4.97-2.26,7.43-3.23,2.9-1.15,5.75-2.42,8.66-3.54,2.9-1.11,5.86-2.09,8.79-3.13ZM367.88,85.24c.92-5.96,8.44-5.34,10.47-10.57-7.02.73-9.16,6.94-13.12,9.77.81.24,1.82.55,2.64.8ZM386.45,87.76c-6.15-1.8-10.17.15-9.64,3.76,3.28-1.28,6.46-2.52,9.64-3.76ZM411.39,169.85c2.56-1.47,4.28-2.46,6.33-3.63-1.88-1.73-3.14-2.89-5.49-5.04-.32,3.3-.53,5.46-.84,8.67ZM108.89,90.59c-.21-.65-.42-1.3-.63-1.94-3.4,1.16-6.8,2.32-10.2,3.48.16.48.32.96.47,1.44,3.45-.99,6.9-1.98,10.36-2.97ZM155.08,24.45c.12.26.25.52.37.78,2.62,0,5.24.09,7.84-.05.95-.05,2.04-.42,2.73-1.03.41-.36.49-1.89.14-2.16-.79-.62-2.11-1.3-2.9-1.03-2.8.96-5.47,2.3-8.19,3.5ZM381.45,107.07c.33.49.67.98,1,1.47,3.56-1.93,7.12-3.85,10.67-5.78l-1.28-2.14c-3.47,2.15-6.93,4.3-10.4,6.45ZM416.5,155.98c-2.08-.79-2.61-1.13-3.13-1.13-.24,0-.73.78-.64,1.05.16.46.67,1.08,1.06,1.11.56.04,1.16-.4,2.71-1.03ZM388.93,107.91l.08.45.15-.34-.24-.11ZM7.09,205.53c.25-.12.51-.23.76-.35-.08-.13-.19-.37-.23-.36-.25.07-.49.2-.73.31.07.13.14.27.2.4Z"/>
      <path class="cls-5" d="M377.61,297.43c2,.01,3.99.03,5.99.04,1.69-.28,3.39-.56,5.08-.84,5.96-3.61,11.95-2.18,17.94-.11-.01.82.1,1.67-.06,2.47-2.4,11.87-5.13,23.69-4.11,35.98.1,1.19-1.21,2.5-1.87,3.75-2.94-3.3-6.37-5.59-10.95-6.14-1.46-.17-3.07-1.37-4.09-2.54-6.69-7.67-8.22-8.17-17.59-5.07-1.91-2.21-3.81-4.43-5.91-6.88-1.69,4.25-2.16,8.54-4.55,10.61-2.59,2.24-6.98,2.39-10.26,3.36-.47.79-.9,2.28-1.89,3.01-3.63,2.7-7.34,5.33-11.26,7.57-1.25.72-3.49.71-4.8.06-1.87-.92-3.29-2.74-4.9-4.17-.45-.28-.91-.56-1.37-.83-.51-.38-1.01-.77-1.52-1.15-1.59.12-3.18.24-4.77.36-.72-.53-1.44-1.05-2.15-1.58-.09-.35-.32-.56-.67-.65-.25.01-.41-.1-.47-.35-.73-.62-1.47-1.25-2.21-1.87-.31-.05-.51-.23-.58-.54-1.73-.19-4.13-1.19-5.08-.42-2.57,2.11-5.06,2.12-7.9,1.34-6.53-1.99-8.93-1.32-12.98,4.63-2.87,4.22-6.14,7.67-11.14,9.15-1.03-.08-2.06-.15-3.09-.23-4.64.18-7.26,2.97-8.95,6.96-3.1,2.2-6.19,4.39-9.29,6.59-2.04-2.11-4.08-4.22-6.13-6.34-2.36,1.81-4.9,3.41-7.02,5.46-3.64,3.52-7.01,7.32-10.49,11l-.09.03c-2.32.02-4.58-3.12-7.02-.13-.1.12-1.43-.58-2.03-1.09-5.76-4.89-11.49-9.83-17.24-14.74-.73-.63-1.69-1.79-2.29-1.64-7.55,1.77-9.9-5.03-14.39-8.38-2.79-2.08-6.11-3.45-9.19-5.13-.82-.49-1.65-.99-2.47-1.49,2.88-5.81,0-11.32-1.57-16.56-1.14-3.8-4.49-6.94-6.86-10.37-1.48-1.33-2.97-2.65-4.45-3.97-2.55-2.46-5.14-4.87-7.63-7.39-2.01-2.03-3.89-4.19-6.5-7.03-.23.11-1.74.82-3.24,1.53-1.12-1.12-2.24-2.23-3.36-3.35-.21-.26-.41-.52-.62-.79-1.56-1.87-3.12-3.74-4.68-5.61-1.43-2.17-2.86-4.34-4.63-7.03-2.99,2.2-6.17,4.54-8.86,6.52-10.62-3.96-20.96-8.55-33.29-4.22-.82-.9-2-2.19-3.19-3.48.41-.08.81-.16,1.22-.24-.25-2.83-.51-5.66-.76-8.49,1.09-.94,2.26-1.81,3.27-2.83,2.25-2.29,5.21-4.32,6.4-7.09,1.14-2.65.35-6.1.49-9.19.23-4.9.04-9.49-4.02-13.27-1.09-1.01-1.21-3.92-.71-5.65,2.03-6.98,5.6-13.7,6.5-20.78,1.42-11.13,6.18-20.73,11.66-29.93,5.41-9.09,5.34-10.32-.44-20.11,9.34-3.7,18.62-7.6,28.07-11.02,4.77-1.72,9.85-2.57,14.79-3.82,2.07-.23,4.14-.46,6.21-.69.22-.16.46-.21.73-.16.51-.01,1.01-.02,1.52-.03,2.89.07,5.78.15,8.66.22.32,1.62.64,3.24.96,4.87-.04.48-.07.96-.11,1.44-1.83,2.12-3.67,4.24-5.5,6.36,5.6,1.43,6.4-1.88,7.37-5.01,1.08-1.84,2.16-3.68,3.23-5.52,5.56-1.66,3.86,4,5.76,6.01.42.45-.97,2.62-1.52,3.99-12.91,6.52-23.12,16.18-30.53,28.4-20.96,34.57-21.52,69.49,1.14,103.32,33.17,49.53,101.1,53.79,142.06,11.49,15.7-16.22,23.2-36.21,25.68-58.33,1.5,1.25,3.07,2.42,4.46,3.78,1.21,1.17,2.38,3.74,3.28,3.62,4.08-.57,5.91,3.55,9.3,3.91,3.72.4,7.48.67,11.22.68,2.99.01,6-.73,8.98-.6,2.71.12,5.38.96,8.08,1.48-2.32,1.04-4.46,2.15-3.9,5.38.16.91-.14,1.99-.51,2.89-2.16,5.31-4.5,10.56-6.56,15.91-.47,1.23-.6,3.09,0,4.14,1.51,2.59,3.54,4.88,6,8.15,1.38.7,5.39,1.39,6.64,3.63,3.44,6.13,6.32,7.63,13.54,4.8Z"/>
      <path class="cls-4" d="M108.57,158.15c5.77,9.79,5.85,11.02.44,20.11-5.48,9.2-10.24,18.81-11.66,29.93-.91,7.08-4.47,13.8-6.5,20.78-.5,1.73-.38,4.64.71,5.65,4.07,3.78,4.26,8.37,4.02,13.27-.15,3.09.64,6.55-.49,9.19-1.19,2.77-4.15,4.8-6.4,7.09-1.01,1.03-2.18,1.89-3.27,2.83-3.88-3.25-7.79-6.47-11.63-9.77-4.17-3.58-6.31-7.76-5.81-13.67.33-3.91-1.31-8-2.07-12,.92-1.15,2.41-2.18,2.68-3.47,1.47-6.92,2.28-13.99,4-20.83,2.45-9.75,5.62-19.31,8.23-29.02.73-2.7.57-5.65.81-8.48,1.98-1.78,3.95-3.55,6.22-5.59.32,2.43.55,4.17.94,7.13,2.53-3.21,3.81-6.12,6.02-7.37,4.3-2.42,9.13-3.91,13.74-5.78Z"/>
      <path class="cls-4" d="M273.54,346.63c5.01-1.48,8.28-4.93,11.14-9.15,4.05-5.95,6.45-6.63,12.98-4.64,0,0,.06.29.06.29-6.39.23-8.11,2.8-11.17,10.45-2.51,6.27-5.21,12.88-11.03,17.24,0,0-.2.09-.2.09-.57.49-1.14.97-1.72,1.46-.33.31-.67.62-1,.94-.34-1.26-.69-2.52-1.03-3.78,0,0,.27-.24.27-.24l-.25.26c-3.8,4.52-7.13,9.25-6.73,15.59,1.55,2.09,3.11,4.17,4.66,6.26,0,0-.11.09-.11.09-.3.25-.6.49-.9.74,0,0-.25.23-.24.23-.26.16-.47.37-.63.63-.61.17-1.22.34-1.82.51,0,0,.1-.02.1-.02-.57.33-1.13.67-1.7,1-2.52,1.2-4.94,2.82-7.6,3.51-4.69,1.22-9.58.53-12.67-3.26-2.75-3.37-4.54-3.15-7.03-.33-3.42-2.39-6.85-4.78-10.27-7.17.94-.25,1.87-.5,2.81-.74,8.4.99,14.92-3.72,21.88-7.14.84-.41,1.84-.49,2.76-.73.16,1.13.32,2.26.48,3.39.41.25.81.51,1.22.76,1.18-2.11,2.43-4.18,3.5-6.34.79-1.59.94-3.7,2.1-4.88,2.83-2.91,2.11-5.52.11-8.31,1.69-3.99,4.3-6.78,8.95-6.96-1.27,2.47-2.54,4.95-3.99,7.78,5.75-.61,7.24-2.38,7.08-7.55Z"/>
      <path class="cls-4" d="M400.58,338.72c.66-1.25,1.96-2.56,1.87-3.75-1.02-12.29,1.71-24.11,4.11-35.98.16-.79.05-1.64.06-2.47,5.1-1.41,9.72-1.1,13.51,3.24.6.69,2.14.56,3.24.81.38,1.75.77,3.5,1.15,5.26-3.01,2.12-5.92,4.24-10.06,2.91-.93-.3-2.37.97-4.97,2.16,4.79,1.59,8.07,2.68,11.35,3.77.45.56.91,1.12,1.36,1.69,0,0-.01-.01-.01-.01-2.06.39-4.19,1.32-6.16,1.04-3.7-.52-6.46.41-8.38,3.22,4.67.38,9.49.78,14.46,1.18-.13,4.38-3.05,5.11-6.31,5.66-1.71.29-3.34,1.02-5.01,1.55,1.13,1.21,2.24,2.44,3.39,3.62.46.47,1,.85,2.16,1.8-1.39,2.42-2.7,5.09-4.37,7.49-2.06,2.96-4.09,1.36-6.21-.27-1.55-1.2-3.44-1.97-5.17-2.93Z"/>
      <path class="cls-3" d="M236.93,384.52c2.49-2.82,4.28-3.05,7.03.33,3.09,3.79,7.98,4.48,12.67,3.26,2.66-.69,5.08-2.31,7.6-3.51,1.1,1.95,2.19,3.9,3.57,6.34-4.9,2.06-10.29,4.34-16.35,6.89,1.28,2.18,2.37,4.04,3.46,5.9-3.3-.75-15.3-13.56-17.98-19.2ZM258.81,390.53c-5.61-.32-10.86-.62-16.49-.94,5.86,7.97,12.17,8.46,16.49.94Z"/>
      <path class="cls-3" d="M335.14,367.57v-12.67c1.32.81,2.63,1.61,4.47,2.74v-10.04c-1.67.38-2.99.68-4.66,1.07-.48-3.72.97-6.07,4.2-6.13,1-.02,2.41,2.99,3,4.82.73,2.27.43,4.89,1.23,7.12,1.47,4.09-.49,6.35-3.43,8.64-1.88,1.47-3.65,3.3-4.88,5.33-2.2,3.65-5.67.95-9.27,2.9.34-3.44.6-6,.9-9.08,3.01,1.89,5.38,3.37,8.44,5.29Z"/>
      <path class="cls-4" d="M228.58,370.07c3.48-3.68,6.85-7.48,10.49-11,2.12-2.05,4.67-3.66,7.02-5.46-1.74,4.58-3.39,9.21-5.24,13.74-1.75,4.28-5.11,3.85-8.62,2.62-1.21.03-2.43.07-3.65.1Z"/>
      <path class="cls-3" d="M122.34,329.6c-.98-6.43-.37-7.16,5.76-7.51-.18-3.24-1.22-7.16,3.97-7.64q3.86,5.08-1.87,9.23c-2.55,1.86-5.04,3.79-7.86,5.92Z"/>
      <path class="cls-3" d="M272.6,363.31c.33-.31.67-.62,1-.94.57-.49,1.14-.97,1.72-1.46,0,0,.2-.09.2-.09.38.92,1.18,1.91,1.05,2.75-.35,2.18-.25,4.77-.52,6.35-.7,4.08-4.16,7.68-6.53,11.48-1.55-2.09-3.11-4.17-4.66-6.26,2.79-.64,9.8-8.25,9.67-10.73-.02-.4-1.25-.74-1.93-1.11Z"/>
      <path class="cls-3" d="M32.39,144.69c-.79.73-1.46,1.73-2.39,2.14-5.13,2.29-10.34,4.4-15.47,6.68-.81.36-1.33,1.34-2.08,1.9-.82.61-1.73,1.16-2.68,1.52-.17.06-1.17-1.08-1.05-1.43.32-.99.81-2.28,1.62-2.68,3.55-1.76,7.21-3.28,10.87-4.81,3.53-1.48,7.1-2.88,10.65-4.31.18.33.36.67.54,1Z"/>
      <path class="cls-3" d="M261.51,353.36c2,2.79,2.72,5.39-.11,8.31-1.15,1.18-1.3,3.29-2.1,4.88-1.07,2.16-2.33,4.23-3.5,6.34-.41-.25-.81-.51-1.22-.76-.16-1.13-.32-2.26-.48-3.39,1.45-3.38,1.4-6.43-1.88-8.79,3.1-2.2,6.2-4.39,9.29-6.59ZM257.65,364.39c-.24-.22-.44-.54-.63-.54-.26,0-.53.24-.8.37.26.25.49.57.8.72.1.05.42-.35.64-.55Z"/>
      <path class="cls-3" d="M173.85,337.5c.82.5,1.65.99,2.47,1.49.99,3.36,1.97,6.72,3.36,11.44-1.8-1.51-2.56-2.45-3.54-2.91-1.41-.65-2.98-1.32-4.48-1.32-2.53,0-6.01,1.53-6.39-2.24-.27-2.67,1.79-4.92,5.44-4.42.93.13,2.09-1.32,3.14-2.05Z"/>
      <path class="cls-3" d="M239.99,1.7c-5.14-.73-11.62,6.19-19.83,1.21,7.55-6.49,14.81.09,19.83-1.21Z"/>
      <path class="cls-3" d="M178.1,364.94c.74-3.1,1.42-5.99,2.36-9.92,3.02,2.05,5.28,3.58,7.57,5.13-1.51,2.06-2.49,3.42-3.49,4.78h-6.43Z"/>
      <path class="cls-3" d="M420.83,314.66c-3.28-1.09-6.55-2.18-11.35-3.77,2.6-1.18,4.04-2.46,4.97-2.16,4.14,1.33,7.05-.79,10.06-2.91,1.02.25,2.03.49,2.06.5-1.93,2.81-3.84,5.57-5.74,8.34Z"/>
      <path class="cls-3" d="M413.72,109.98c1.34,2.26,2.17,3.65,3.17,5.33-2.84,2.23-5.6,4.39-8.27,6.49-.77-.87-1.66-1.87-2.65-2.99,2.42-2.75,4.86-5.53,7.75-8.83Z"/>
      <path class="cls-3" d="M42.2,112.5c-6.02,2.85-10.75,5.08-15.48,7.32,3.16-7.02,6.89-8.68,15.48-7.32Z"/>
      <path class="cls-3" d="M153.04,354.03c-6.26.69-7.53-.21-8.25-7.12,3.53,2.1,6.35,3.77,9.17,5.45-.3.56-.61,1.12-.91,1.68Z"/>
      <path class="cls-3" d="M60.65,256.52q.96,3.67-4.36,4.91c-1.41-3.11-2.87-6.32-4.44-9.79,2.53.88,4.67,1.63,6.82,2.39.66.83,1.32,1.66,1.98,2.49Z"/>
      <path class="cls-3" d="M260.8,6.28c-.96,5.19-3.06,6.65-11.79,6.56,3.59-2.63,7.18-5.26,10.77-7.89.34.44.68.88,1.02,1.33Z"/>
      <path class="cls-3" d="M339.61,33.29c-3.82,3.74-8,.51-12.31,2.24,3.55-7.96,4.71-8.1,12.31-2.24Z"/>
      <path class="cls-3" d="M362.18,356.92c-2.36-.91-4.73-1.81-7.14-2.74,1-2.12,1.67-3.55,2.87-6.09,2.04,2.75,3.76,5.07,5.48,7.38l-1.21,1.44Z"/>
      <path class="cls-3" d="M63.88,84.68c-3.56,2.15-7.12,4.3-10.69,6.45-.42-.14-.85-.29-1.27-.43.84-2.13,1.13-5.37,2.65-6.13,2.68-1.34,6.12-1.16,9.24-1.61.02.57.04,1.15.06,1.72Z"/>
      <path class="cls-3" d="M320.21,378.31c.97-1.28,1.75-2.3,2.73-3.6,2.45,1.77,6.26,2.25,4.04,7.43-2.27-1.28-4.3-2.43-6.78-3.83Z"/>
      <path class="cls-3" d="M297.72,333.14s-.06-.29-.06-.29c2.84.78,5.34.77,7.9-1.34.94-.77,3.34.23,5.08.42-2.23,1.6-4.47,3.21-7.23,5.2-1.37-.96-3.53-2.47-5.69-3.99Z"/>
      <path class="cls-3" d="M154.83,310.78c3.22,3.28,1.1,7.52,2.12,11.52q-4.61-.99-2.12-11.52Z"/>
      <path class="cls-3" d="M366.49,345.01c.37-3.93.73-7.85,1.2-12.83,1.14.91,3.56,2.15,3.41,2.85-.76,3.56-2.18,6.98-3.37,10.44-.41-.15-.83-.31-1.24-.46Z"/>
      <path class="cls-3" d="M106.22,330.52c2.74.4,6.7-1.39,7.06,3.44.08,1.04-2.65,2.3-4.09,3.46-1.42-1.95-2.83-3.9-4.25-5.85.43-.35.85-.7,1.28-1.04Z"/>
      <path class="cls-3" d="M160.97,306.6c1.48,1.32,2.97,2.65,4.45,3.97-.88,2.16-1.77,4.31-2.53,6.17-.82-1.15-2.11-2.63-3.03-4.32-1.16-2.13-3.17-4.64,1.11-5.82Z"/>
      <path class="cls-3" d="M134.94,283.97c1.56,1.87,3.12,3.74,4.68,5.61-3.38,0-6.77,0-10.5,0,1.18-3.36,7.35-.27,5.82-5.62Z"/>
      <path class="cls-3" d="M177.38,374.42c-2.69,3.94-4.27,1-5.4-1.14-.77-1.45-.6-3.41.01-5.77,1.82,2.32,3.65,4.63,5.47,6.95l-.08-.04Z"/>
      <path class="cls-3" d="M70.37,267.23c.84-2.08,1.57-3.87,2.63-6.47,2.26,2.47,4.02,4.38,5.77,6.3-.3.33-.61.67-.91,1-2.23-.25-4.45-.49-7.49-.83Z"/>
      <path class="cls-3" d="M104.93,30.25c2.78-1.57,5.57-3.14,8.35-4.7.22.35.45.7.67,1.05-2.66,1.82-5.32,3.64-7.97,5.46-.35-.6-.7-1.21-1.05-1.81Z"/>
      <path class="cls-3" d="M447.36,282.05c1.51-1.91,3.02-3.83,4.52-5.74.67.51,1.33,1.02,2,1.53-1.44,1.96-2.89,3.92-4.33,5.89-.73-.56-1.46-1.12-2.19-1.68Z"/>
      <path class="cls-3" d="M307.72,374.69c1.35-2.6,4.04-3.67,7.38-2.73.65.18.89,1.81,1.07,2.21-3.28.2-6,.37-8.45.52Z"/>
      <path class="cls-3" d="M164.23,393.83c-1.12,1.56-1.9,2.65-3.61,5.04-.32-3.26-.52-5.36-.77-7.98,1.63,1.1,2.84,1.9,4.39,2.94Z"/>
      <path class="cls-3" d="M61.46,290.18c1.71-.31,3.06-.55,5.6-1-1.08,2.99-1.83,5.09-2.59,7.2-.42-.04-.83-.08-1.25-.11-.55-1.9-1.1-3.8-1.76-6.08Z"/>
      <path class="cls-3" d="M153.4,342.21c-.97-2.62-1.94-5.24-2.92-7.86.58-.23,1.15-.46,1.73-.69.99,2.53,1.97,5.05,2.96,7.58-.59.32-1.18.64-1.77.97Z"/>
      <path class="cls-3" d="M149.33,302.72c-1.61-1.55-3.23-3.11-4.84-4.66.38-.43.77-.86,1.15-1.29,1.68,1.47,3.36,2.94,5.03,4.41-.45.52-.89,1.03-1.34,1.55Z"/>
      <path class="cls-3" d="M316.71,336.91c1.59-.12,3.18-.24,4.77-.36-1.59.12-3.18.24-4.77.36Z"/>
      <path class="cls-3" d="M228.58,370.07c1.22-.03,2.44-.06,3.65-.1-.92,1.22-1.83,2.44-2.74,3.66-.43-.25-.86-.51-1.29-.76.09-.92.18-1.84.28-2.77,0,0,.1-.04.1-.04Z"/>
      <path class="cls-3" d="M140.23,290.37c1.12,1.12,2.24,2.23,3.36,3.35-4.32,2.1-2.47-2-3.36-3.35Z"/>
      <path class="cls-3" d="M229.46,376.61c-.94.25-1.87.5-2.81.74-.4-.61-.8-1.22-1.2-1.83,1.34.36,2.67.73,4.01,1.09Z"/>
      <path class="cls-3" d="M303.13,36.26c.77-.85,1.54-1.7,2.31-2.55.45.42.9.84,1.35,1.26-1.04.66-2.08,1.32-3.12,1.98-.18-.23-.35-.46-.53-.69Z"/>
      <path class="cls-3" d="M422.18,316.34s.01,0,.01.01c.48.04.95.08.23.02.72.09.24.03-.24-.03Z"/>
      <path class="cls-3" d="M72.16,286.96c.23-.75.47-1.51.7-2.26.21.05.42.09.63.14-.15.79-.29,1.59-.44,2.38-.3-.08-.6-.17-.9-.25Z"/>
      <path class="cls-3" d="M154.32,331.1c.18.44.34.85.51,1.26-.3.04-.7.23-.86.1-.26-.21-.35-.62-.52-.94.25-.12.51-.25.87-.42Z"/>
      <path class="cls-3" d="M311.22,332.47c.74.62,1.47,1.25,2.21,1.87-.74-.63-1.47-1.25-2.21-1.87Z"/>
      <path class="cls-4" d="M60.65,256.52c-.66-.83-1.32-1.66-1.98-2.49.66.83,1.32,1.66,1.98,2.49Z"/>
      <path class="cls-3" d="M323,337.7c.46.28.92.56,1.37.83-.46-.28-.92-.56-1.37-.83Z"/>
      <path class="cls-3" d="M177.46,374.46c.36-.15.72-.3,1.08-.46,0-.01,0-.02-.01-.03-.38.15-.76.3-1.14.45,0,0,.08.04.08.04Z"/>
      <path class="cls-3" d="M313.9,334.68c.35.09.57.31.67.65-.22-.22-.45-.44-.67-.65Z"/>
      <path class="cls-3" d="M202.58,20.52c-.07.12-.13.24-.2.36.09-.1.17-.2.26-.3,0,0-.06-.06-.06-.06Z"/>
      <polygon class="cls-3" points="125.49 318.55 125.68 318.43 125.56 318.51 125.49 318.55"/>
      <path class="cls-3" d="M125.56,318.51l-.12.18s.05-.15.05-.15c0,0,.07-.03.07-.03Z"/>
      <path class="cls-3" d="M268.52,382.24c.3-.25.6-.49.9-.74-.3.25-.6.49-.9.74Z"/>
      <path class="cls-3" d="M267.65,383.1c.16-.26.37-.47.63-.63-.21.21-.42.42-.63.63Z"/>
      <path class="cls-3" d="M265.92,383.59s-.09.02-.1.02c0,0,.1-.02.1-.02Z"/>
      <path class="cls-1" d="M108.57,158.15c-4.61,1.87-9.44,3.36-13.74,5.78-2.21,1.25-3.49,4.16-6.02,7.37-.39-2.96-.62-4.7-.94-7.13-2.27,2.04-4.24,3.81-6.22,5.59-.61-1.58-1.21-3.15-2.13-5.53-.51.15-1.82.54-2.51.74-.57-1.17-1.44-2.92-2.5-5.08,4.34-3.11,8.75-6.27,13.18-9.44-1.2-2.2-2.2-4.04-3.71-6.84,15.33,3.69,23.19-7.9,33.69-13.37.75-.48,1.49-.95,2.24-1.42,0,0-.15.18-.15.18.72-.37,1.45-.74,2.17-1.11,0,0-.07.21-.07.21,6.37-1.73,12.99-2.86,19.06-5.33,7.88-3.2,15.41-7.32,22.89-11.42,1.18-.65,1.72-3.31,1.74-5.05.03-3.23-.54-6.47-.87-9.7l.2-.25s-.16-.28-.16-.28c.4-.81.8-1.62,1.2-2.43.26-.3.53-.61.79-.91,1.66-1.65,3.33-3.29,5-4.94,1.66-.66,3.32-1.33,4.98-1.99.61-.14,1.22-.28,1.83-.41,2.17.07,4.33.15,6.5.22.89.37,1.77.75,2.66,1.12,0,0,.32-.17.31-.17.62.43,1.25.86,1.87,1.29,0,0,0-.09,0-.1,2.92,4.58,7.23,4.56,11.28,2.51,4.78-2.42,9.13-5.68,13.67-8.58,0,0-.08.1-.08.1.94-.75,1.89-1.5,2.83-2.25,0,0,.04-.04.04-.04.7-.62,1.4-1.24,2.11-1.86.36-.19.72-.39,1.08-.58,1.61-1.79,3.22-3.58,4.83-5.38,11.68-6.78,23.37-13.57,35.05-20.35.09.09.19.18.28.27-1.11.98-2.22,1.96-4.48,3.95,2.45,0,3.72,0,5,0,2.93.01,5.87.16,8.79,0,1.77-.1,3.58-.46,5.24-1.06,2.02-.73,3.82-2.31,5.86-2.68,3.3-.59,7.89-1.92,9.79-.34,2.46,2.04,2.82,6.62,4.61,11.57-3.49-.77-5.2-1.51-6.85-1.42-2.5.13-5.1.5-7.4,1.4-2.65,1.04-2.72,2.89-.66,5.04,1.14,1.18,1.74,2.88,2.58,4.34-.31.37-.62.75-.92,1.12-1.14-.47-2.48-.7-3.38-1.46-3.28-2.74-5.94-4.6-9.77-.1-1.91,2.24-5.97,2.55-8.94,3.98-4.72,2.27-9.34,4.75-14,7.14-1.49.92-3.2,1.6-4.41,2.8-2.43,2.41-4.32,5.42-6.92,7.58-4.73,3.93-4.94,9.27-5.91,13.99,2.69.33,4.92.6,7.16.88l.69,2.29c-2.26,1.53-4.52,3.06-6.6,4.48,2.39,1.53,3.92,2.51,5.44,3.49,1.09,1.75,1.86,3.86,3.34,5.16,1.81,1.57,4.21,2.45,6.36,3.62,1.61,1.91,3.22,3.82,4.83,5.73.29.18.58.35.87.53.2.98.4,1.96.6,2.95-.41.67-.81,1.35-1.22,2.02-.79.2-1.57.39-2.36.59,1.07,4.08,1,9.2,3.52,11.96,2.54,2.79,7.65,3.24,11.63,4.71.91.55,1.77,1.26,2.75,1.63,7.52,2.83,14.41,6.56,19.41,13.1-2.33-1.02-4.65-2.04-6.98-3.06-2.3-1.42-4.59-2.84-6.89-4.26-.28.57-.57,1.15-.85,1.72,2.58.84,5.17,1.69,7.75,2.53,3.79,3.28,7.58,6.56,11.37,9.83.24-.24.48-.48.72-.73-1.74-2.04-3.49-4.09-5.23-6.13,5.36,4.09,11.03,7.83,16,12.35,6.51,5.93,12.46,12.47,18.65,18.75.46.41.91.83,1.37,1.24l-.2-.15c.26.44.52.88.79,1.32l.07.18c.85.94,1.54,2.41,2.58,2.73,4.3,1.32,6.16,4.35,7.35,8.44,1.15,3.95,3.72,6.51,6.57,5.52,2.13,1.44,3.05,2.05,3.96,2.67h-.01c3.03,1.73,6.06,3.46,9.09,5.2.14.27.37.37.66.32,3.2.59,6.47,1.94,9.58,1.64,10.12-.97,16.17,5.43,12.75,14.15-2.16,5.53-6.91,7.14-12.26,7.66-2.69-.52-5.37-1.36-8.07-1.48-2.98-.13-5.99.61-8.98.6-3.74-.02-7.5-.28-11.22-.68-3.39-.36-5.22-4.48-9.3-3.91-.9.13-2.07-2.45-3.28-3.62-1.4-1.35-2.97-2.52-4.46-3.77-3.03-3.01-5.02-6.91-9.44-8.75-3.05-1.27-5.86-3.83-7.96-6.47-2.59-3.24-3.55-7.85-8.77-8.46-.75-.09-1.39-1.72-1.95-2.71-3.54-6.25-9.37-10.1-15.36-13.24-5.9-3.09-12.51-4.8-19.27-7.29.17,1.65.31,3.07.6,5.86-2.01-1.51-3.96-2.22-4.13-3.23-1.03-6-6.12-6.98-10.44-8.65-3.5-1.35-5.88.17-6.04,4.17-.15,3.81.26,7.69-.35,11.42-.94,5.76-3.01,11.37-1.12,17.33.32,1,.09,2.36-.33,3.36-1.18,2.81-2.56,5.54-3.91,8.28-1.65,3.36-.8,4.74,2.44,4.74.56,2.35,1.6,4.6,1.48,6.78-.16,2.93-1.23,5.81-1.91,8.72-1.28-.95-2.46-2.47-3.87-2.73-2.71-.5-5.67-.77-8.3-.16-1.36.31-2.24,2.69-3.34,4.14l1.12.98c1.91-.69,3.8-1.84,5.75-1.98,2.83-.19,5.72.35,8.58.58,4.88,5.41,6.1,12.49,1.07,17.78-4.37,4.6-3.44,9.37-4.12,14.43-.57,4.28-1.66,8.97-4.04,12.43-4.16,6.06-12.64,4.53-15.66-2.2-2.96-6.6-1.77-12.96.97-19.24,1.02-.92,2.69-1.69,2.96-2.81,1.29-5.27,2.26-10.62,3.16-15.97.11-.63-.91-1.44-1.41-2.17-.97.73-2.62,1.36-2.76,2.22-.36,2.27-.05,4.64,0,6.97-2.87-2.69-7.12-4.68-4.22-9.99.48-.88-.59-2.74-1.17-4.04-1.13-2.57-3.27-5.01-3.45-7.61-.31-4.51.54-9.11.83-12.82-2.78-1.51-5.89-2.27-6.05-3.44-1.03-7.49-2.07-15.09-1.79-22.61.21-5.61,2.44-11.14,3.65-16.74.19-.87,0-2.09-.5-2.79-1.14-1.56-2.59-2.9-3.89-4.29-11.68,13.94-16.4,17.56-22.41,15.7,7.24-5.75,17.85-8.19,20.37-19.45-1.41.19-2.46.53-3.45.41-1.64-.2-3.98-.15-4.73-1.16-4.41-5.96-8.01-12.31-5.2-20.2.56-1.38,1.95-3.54,1.52-3.99-1.9-2.01-.19-7.67-5.76-6.01-.95-.74-1.9-1.48-2.85-2.22-1.03.03-2.07.05-3.1.08-2.89-.07-5.78-.15-8.67-.22-.51.01-1.01.02-1.51.03-.26-.05-.51,0-.73.16-2.07.23-4.14.46-6.21.69-4.94,1.24-10.02,2.09-14.79,3.82-9.45,3.42-18.72,7.32-28.07,11.02ZM201.61,185.58c-.3.52-.6,1.05-.9,1.57.23.08.46.16.69.23.05-.62.09-1.25.14-1.87.14-.04.31-.05.42-.13.06-.05.04-.22.05-.33-.14.18-.27.36-.41.54ZM231.03,138.57l1.23-1.55-.8-.33c-.13.63-.26,1.27-.39,1.9-1.69.74-3.39,1.48-5.08,2.22.16.28.33.55.49.83,1.52-1.02,3.03-2.04,4.55-3.07ZM207.6,93.55c-.22-.14-.45-.28-.41-.26-.04-.02.21.09.46.2,2.89,3,5.79,6,8.68,9.01l1.33-1.48c-3.35-2.49-6.71-4.98-10.06-7.47ZM175.84,102.18c-7.83,5.57-8.76,13.37-4.41,20.28,1.24-5.72,2.71-12.49,4.41-20.28ZM319.82,224.27c-2.76.8-5.6,1.3-5.59,1.66.16,3.43.81,6.85,1.32,10.26.52-.06,1.05-.11,1.57-.17.77-3.38,1.55-6.76,2.69-11.76ZM185.78,147.48c-2.06-5.34-3.43-11.34-9.67-13.9,3.22,4.63,6.45,9.27,9.67,13.9ZM203.96,237.26c6.52-6.62,6.86-8.18,1.99-12.13-.68,4.17-1.24,7.56-1.99,12.13ZM233.31,131.57c-.21.06-.42.13-.62.19.05,1.03.09,2.05.14,3.08.16,0,.33-.01.49-.02v-3.25Z"/>
      <path class="cls-4" d="M250.38,133.12c-1.61-1.91-3.22-3.82-4.83-5.73-1.14-5.24-3.62-9-9.7-8.78-1.53-.98-3.05-1.96-5.44-3.49,2.08-1.41,4.34-2.95,6.6-4.48l-.69-2.29c-2.23-.27-4.47-.55-7.16-.88.97-4.72,1.17-10.06,5.91-13.99,2.61-2.16,4.49-5.18,6.92-7.58,1.21-1.2,2.92-1.88,4.41-2.8,1.28.71,2.48,1.72,3.85,2.07,7.2,1.83,14.57,3.08,21.64,5.3,8.75,2.75,17.46,5.81,25.84,9.54,15.28,6.8,28.25,17,40.53,28.28,11.76,10.8,21.78,23.09,29.09,37.01,6.32,12.03,11.5,25.06,14.66,38.25,5.01,20.89,5.51,42.38,1.78,63.69-1.44,8.23-4.09,16.24-6.01,24.39-.43,1.84-.14,3.86-.18,5.8-7.22,2.83-10.1,1.33-13.54-4.8-1.25-2.23-5.26-2.92-6.64-3.63-2.46-3.27-4.49-5.56-6-8.15-.61-1.05-.48-2.91,0-4.14,2.06-5.35,4.39-10.6,6.56-15.91.36-.89.67-1.98.51-2.89-.56-3.23,1.58-4.34,3.9-5.38,5.35-.53,10.09-2.13,12.26-7.66,3.42-8.73-2.63-15.13-12.75-14.15-3.11.3-6.38-1.05-9.58-1.64,2.98-2.7,3.99-11.31,2.09-15.72-3.32-7.69-6.25-15.55-9.76-23.16-3.06-6.65-6.37-13.23-10.21-19.45-1.63-2.64-5.5-3.86-7.25-6.47-6.8-10.08-15.48-18.21-25.63-24.55-8.67-5.41-17.71-10.5-27.16-14.31-5.01-2.02-11.25-1.34-16.92-1.26-2.99.04-5.24.27-5.94-3.35-.85-4.37-4.39-5.69-8.9-7.53.5,2.9.39,5.18,1.32,6.87,1.2,2.18,6.13,11.01,6.41,12.98Z"/>
      <path class="cls-4" d="M164.67,96.6c.32,3.24.9,6.47.87,9.7-.02,1.74-.56,4.4-1.74,5.05-7.47,4.1-15,8.22-22.89,11.42-6.07,2.47-12.69,3.6-19.06,5.33.57-7.23,6.99-9.98,11.55-13.39,8.76-6.55,18.52-11.77,27.92-17.45.91-.55,2.22-.46,3.34-.66Z"/>
      <path class="cls-4" d="M214.8,81.69c-4.54,2.9-8.89,6.16-13.67,8.58-4.05,2.05-8.36,2.07-11.28-2.51,6.85-1.85,13.69-3.74,20.56-5.53,1.42-.37,2.93-.37,4.39-.54Z"/>
      <path class="cls-4" d="M225.6,71.68c-1.61,1.79-3.22,3.58-4.83,5.38,0-2.34,0-4.68,0-7.4,1.69.71,3.26,1.37,4.83,2.03Z"/>
      <path class="cls-4" d="M171.69,87.8c-1.67,1.65-3.33,3.29-5,4.94,1.17-2.15.52-6.14,5-4.94Z"/>
      <path class="cls-4" d="M388.67,296.63c-1.69.28-3.39.56-5.08.84,1.69-.28,3.39-.56,5.08-.84Z"/>
      <path class="cls-4" d="M217.55,79.54c-.94.75-1.89,1.5-2.83,2.25.94-.75,1.89-1.5,2.83-2.25Z"/>
      <path class="cls-1" d="M296.71,19.68c-.87.44-1.75.88-2.62,1.32-.08-.37-.17-.74-.25-1.11.98-.04,1.95-.09,2.94-.13,0,0-.06-.08-.06-.08Z"/>
      <polygon class="cls-1" points="388.93 107.91 389.16 108.02 389.01 108.36 388.93 107.91"/>
      <path class="cls-4" d="M219.69,77.64c-.7.62-1.4,1.24-2.11,1.86.7-.62,1.4-1.24,2.11-1.86Z"/>
      <path class="cls-4" d="M165.91,93.65c-.4.81-.8,1.62-1.2,2.43.4-.81.8-1.62,1.2-2.43Z"/>
      <path class="cls-4" d="M178.51,85.4c-.61.14-1.22.28-1.83.41.61-.14,1.22-.28,1.83-.41Z"/>
      <path class="cls-4" d="M121.92,127.89c-.72.37-1.45.74-2.17,1.11.72-.37,1.45-.74,2.17-1.11Z"/>
      <path class="cls-4" d="M119.9,128.83c-.75.47-1.49.95-2.24,1.42.75-.47,1.49-.95,2.24-1.42Z"/>
      <path class="cls-1" d="M7.09,205.53c-.07-.13-.14-.27-.2-.4.24-.11.48-.24.73-.31.04-.01.15.23.23.36-.25.12-.51.23-.76.35Z"/>
      <path class="cls-1" d="M273.66,37.65c.3-.32.6-.64.16-.17.58-.2.17-.06-.25.09,0,0,.08.09.08.09Z"/>
      <path class="cls-4" d="M187.67,86.74c-.89-.37-1.77-.75-2.66-1.12.88.37,1.77.75,2.66,1.12Z"/>
      <path class="cls-1" d="M97.09,47.83c.5.02,1,.04,1.5.07-.16.37-.32.74-.48,1.11-.34-.39-.68-.78-1.01-1.17Z"/>
      <path class="cls-4" d="M189.85,87.86c-.62-.43-1.25-.86-1.87-1.29.62.43,1.25.86,1.87,1.29Z"/>
      <path class="cls-2" d="M208.79,275.57c-2.75,6.3-3.93,12.66-.98,19.26,3.02,6.73,11.49,8.25,15.66,2.2,2.38-3.46,3.47-8.15,4.04-12.43.68-5.06-.25-9.84,4.12-14.43,5.03-5.29,3.81-12.37-1.07-17.77.19-.26.21-.54.06-.84.68-2.9,1.74-5.79,1.91-8.72.12-2.18-.93-4.43-1.48-6.78-3.24,0-4.1-1.38-2.44-4.74,1.35-2.74,2.73-5.47,3.91-8.28.42-1.01.65-2.36.33-3.36-1.89-5.96.18-11.57,1.12-17.33.61-3.73.2-7.61.35-11.42.16-4,2.53-5.53,6.04-4.17,4.32,1.67,9.41,2.65,10.44,8.65.17,1.01,2.12,1.72,4.13,3.23-.29-2.8-.43-4.21-.6-5.86,6.76,2.49,13.38,4.2,19.27,7.29,5.99,3.14,11.82,6.99,15.36,13.24.56.99,1.2,2.62,1.95,2.71,5.22.61,6.19,5.23,8.77,8.46,2.1,2.63,4.91,5.2,7.96,6.47,4.42,1.84,6.41,5.74,9.44,8.75-2.48,22.12-9.98,42.11-25.68,58.33-40.96,42.3-108.89,38.03-142.06-11.49-22.66-33.83-22.1-68.75-1.14-103.32,7.41-12.23,17.62-21.88,30.53-28.4-2.81,7.89.8,14.24,5.2,20.21.75,1.01,3.1.96,4.73,1.16.99.12,2.03-.22,3.45-.41-2.51,11.25-13.13,13.69-20.37,19.45,6.01,1.86,10.73-1.76,22.41-15.7,1.29,1.39,2.75,2.73,3.89,4.29.51.7.69,1.92.5,2.79-1.21,5.59-3.44,11.12-3.65,16.74-.28,7.52.76,15.12,1.79,22.61.16,1.17,3.27,1.93,6.05,3.44-.3,3.71-1.15,8.31-.83,12.82.18,2.6,2.32,5.04,3.45,7.61.58,1.31,1.65,3.16,1.17,4.04-2.9,5.31,1.34,7.31,4.21,9.99-.29,2.41-.58,4.83-.87,7.25-.25,1.19-.51,2.37-.76,3.56-.1.32-.2.63-.3.94Z"/>
      <path class="cls-1" d="M171.26,150.31c-.97,3.13-1.77,6.44-7.37,5.01,1.83-2.12,3.67-4.24,5.5-6.36.62.45,1.25.9,1.87,1.35Z"/>
      <path class="cls-3" d="M171.26,150.31c-.62-.45-1.25-.9-1.87-1.35.04-.48.07-.96.11-1.44.71-1.65,1.43-3.3,2.14-4.95.95.74,1.9,1.48,2.85,2.22-1.08,1.84-2.16,3.68-3.23,5.52Z"/>
      <path class="cls-4" d="M171.64,142.57c-.71,1.65-1.43,3.3-2.14,4.95-.32-1.62-.64-3.25-.96-4.87,1.03-.03,2.07-.05,3.1-.08Z"/>
      <path class="cls-4" d="M151.43,143.32c2.07-.23,4.14-.46,6.21-.69-2.07.23-4.14.46-6.21.69Z"/>
      <path class="cls-4" d="M158.36,142.47c.5-.01,1.01-.02,1.51-.03-.5.01-1.01.02-1.51.03Z"/>
      <path class="cls-5" d="M272.6,363.31c.67.37,1.91.71,1.93,1.11.13,2.48-6.87,10.09-9.67,10.73-.4-6.34,2.93-11.07,6.73-15.6,0,0-.02-.02-.02-.02.34,1.26.69,2.52,1.03,3.78Z"/>
      <path class="cls-5" d="M275.32,360.92c-.57.49-1.14.97-1.72,1.46.57-.49,1.14-.97,1.72-1.46Z"/>
      <polygon class="cls-5" points="271.59 359.55 271.85 359.29 271.57 359.53 271.59 359.55"/>
      <path class="cls-4" d="M257.65,364.39c-.22.2-.53.6-.64.55-.31-.14-.54-.46-.8-.72.27-.14.53-.38.8-.37.2,0,.39.32.63.54Z"/>
      <path class="cls-5" d="M250.38,133.12c-.28-1.97-5.21-10.8-6.41-12.98-.93-1.69-.82-3.97-1.32-6.87,4.5,1.84,8.05,3.16,8.9,7.53.7,3.62,2.95,3.4,5.94,3.35,5.67-.08,11.91-.76,16.92,1.26,9.45,3.81,18.49,8.9,27.16,14.31,10.16,6.34,18.83,14.48,25.63,24.55,1.76,2.6,5.63,3.82,7.25,6.47,3.83,6.22,7.14,12.8,10.21,19.45,3.5,7.6,6.44,15.47,9.76,23.16,1.9,4.41.89,13.02-2.09,15.72-.3.05-.52-.06-.67-.32-.36-3.24-.72-6.47-.97-8.78-3.2,1.41-5.66,2.49-8.11,3.57,0,0,.01,0,.01,0,.19-3.31-.18-6.05-4.63-5.81-.83.04-2.03-.94-2.55-1.76-1.3-2.09-2.36-4.34-3.43-6.56-2.58-5.34-4.71-6.49-9.86-5.22,0,0-.07-.18-.07-.18-.26-.44-.52-.88-.79-1.32,0,0,.2.15.19.15-.46-.41-.91-.83-1.37-1.24-6.19-6.28-12.14-12.82-18.65-18.75-4.96-4.52-10.64-8.26-16-12.35l.12.09c-5-6.55-11.89-10.28-19.41-13.1-.98-.37-1.83-1.08-2.75-1.63-.8-1.07-1.38-2.75-2.42-3.11-9.8-3.35-10.53-4.25-10.36-14.15.41-.67.81-1.35,1.22-2.02.47-.52.94-1.04,1.41-1.56-.67-.46-1.34-.93-2.01-1.39-.29-.18-.58-.35-.87-.53Z"/>
      <path class="cls-3" d="M175.84,102.18c-1.69,7.79-3.16,14.56-4.41,20.28-4.35-6.91-3.42-14.71,4.41-20.28Z"/>
      <path class="cls-4" d="M322.12,204.2c5.15-1.27,7.28-.13,9.86,5.22,1.07,2.22,2.13,4.47,3.43,6.56.52.83,1.71,1.81,2.55,1.76,4.45-.24,4.82,2.5,4.63,5.81-.91-.62-1.83-1.23-3.96-2.67-2.85.99-5.42-1.57-6.57-5.52-1.19-4.09-3.05-7.12-7.35-8.44-1.04-.32-1.73-1.79-2.58-2.73Z"/>
      <path class="cls-3" d="M230.62,251.55c.15.29.13.58-.06.84-2.86-.24-5.74-.78-8.58-.59-1.95.13-3.84,1.28-5.75,1.98l-1.12-.98c1.1-1.45,1.98-3.83,3.34-4.14,2.63-.6,5.59-.33,8.3.16,1.41.26,2.59,1.78,3.87,2.73Z"/>
      <path class="cls-3" d="M209.86,271.06c.29-2.42.58-4.84.87-7.25-.04-2.32-.35-4.69.01-6.96.14-.86,1.8-1.49,2.76-2.22.5.73,1.51,1.54,1.41,2.17-.9,5.35-1.87,10.7-3.16,15.97-.27,1.11-1.94,1.89-2.96,2.81.1-.33.2-.64.31-.96.25-1.19.51-2.37.76-3.56Z"/>
      <path class="cls-3" d="M319.82,224.27c-1.15,5-1.92,8.38-2.69,11.76-.52.06-1.05.11-1.57.17-.51-3.42-1.16-6.83-1.32-10.26-.02-.37,2.83-.87,5.59-1.66Z"/>
      <path class="cls-4" d="M250.62,138.61c-.17,9.9.57,10.8,10.36,14.15,1.04.36,1.63,2.04,2.42,3.11-3.98-1.47-9.09-1.92-11.63-4.71-2.52-2.76-2.45-7.88-3.52-11.96.79-.2,1.57-.39,2.36-.59Z"/>
      <path class="cls-3" d="M185.78,147.48c-3.22-4.63-6.45-9.27-9.67-13.9,6.24,2.57,7.61,8.56,9.67,13.9Z"/>
      <path class="cls-4" d="M342.57,223.54c2.46-1.08,4.91-2.16,8.11-3.57.26,2.31.61,5.54.97,8.78-3.03-1.74-6.06-3.47-9.09-5.21Z"/>
      <path class="cls-3" d="M203.96,237.26c.75-4.57,1.31-7.96,1.99-12.13,4.87,3.96,4.53,5.52-1.99,12.13Z"/>
      <path class="cls-3" d="M235.85,118.61c6.08-.22,8.56,3.55,9.7,8.78-2.15-1.18-4.56-2.06-6.36-3.63-1.49-1.29-2.25-3.41-3.34-5.16Z"/>
      <path class="cls-3" d="M285.44,170.51c1.74,2.04,3.49,4.09,5.23,6.13-.24.24-.48.48-.72.73-3.79-3.28-7.58-6.56-11.37-9.83h0c2.33,1.03,4.65,2.05,6.98,3.07,0,0-.12-.09-.12-.09Z"/>
      <path class="cls-3" d="M207.6,93.55c3.35,2.49,6.71,4.98,10.06,7.47l-1.33,1.48c-2.89-3-5.79-6-8.68-9.01l-.05.05Z"/>
      <path class="cls-3" d="M278.59,167.54c-2.58-.84-5.17-1.69-7.75-2.53.28-.57.57-1.15.85-1.72,2.3,1.42,4.59,2.84,6.89,4.26,0,0,0,0,0,0Z"/>
      <path class="cls-3" d="M231.03,138.57c-1.52,1.02-3.03,2.04-4.55,3.07-.16-.28-.33-.55-.49-.83,1.69-.74,3.39-1.48,5.08-2.22,0,0-.04-.02-.04-.02Z"/>
      <path class="cls-4" d="M251.25,133.65c.67.46,1.34.93,2.01,1.39-.47.52-.94,1.04-1.41,1.56-.2-.98-.4-1.96-.6-2.95Z"/>
      <path class="cls-4" d="M233.31,131.57v3.25c-.16,0-.33.01-.49.02-.05-1.03-.09-2.05-.14-3.08.21-.06.42-.13.62-.19Z"/>
      <path class="cls-4" d="M231.03,138.57s.04.02.04.02c.13-.63.26-1.27.39-1.9l.8.33-1.23,1.55Z"/>
      <path class="cls-3" d="M201.54,185.51c-.05.62-.09,1.25-.14,1.87-.23-.08-.46-.16-.69-.23.3-.52.6-1.05.9-1.57,0,0-.07-.07-.07-.07Z"/>
      <path class="cls-3" d="M207.64,93.5c-.25-.11-.5-.22-.46-.2-.04-.03.18.12.41.26,0,0,.05-.05.05-.05Z"/>
      <path class="cls-4" d="M320.09,201.61c.45.41.91.83,1.37,1.24-.45-.41-.91-.83-1.37-1.24Z"/>
      <path class="cls-4" d="M321.26,202.7c.26.44.53.88.79,1.32-.26-.44-.52-.88-.79-1.32Z"/>
      <path class="cls-3" d="M201.61,185.58c.14-.18.27-.36.41-.54-.02.11.01.28-.05.33-.11.08-.28.09-.42.14,0,0,.07.07.07.07Z"/>
      <path class="cls-1" d="M209.86,271.06c-.25,1.19-.51,2.37-.76,3.56.25-1.19.51-2.37.76-3.56Z"/>
    </g>
    <g>
      <path class="cls-6" d="M513.53,166.56h38.7c14.6,0,21.9,10.1,21.9,20.3,0,4.2-1.3,8.4-3.8,11.9,6.5,4.2,9.6,11,9.6,17.7,0,10.2-7.3,20.1-21.4,20.1h-45v-70ZM530.43,194.66h18.3c5.7,0,8.6-3.8,8.6-7.7s-2.9-7.7-8.6-7.7h-18.3v15.4ZM530.43,222.86h24.6c5.7,0,8.6-3.9,8.6-7.8s-2.9-7.9-8.6-7.9h-24.6v15.7Z"/>
      <path class="cls-6" d="M619.73,165.56h17.1l33.8,71h-17.9l-4.9-10.2h-39.2l-4.9,10.2h-17.9l33.9-71ZM615.43,212.26h25.6l-12.8-26.7-12.8,26.7Z"/>
      <path class="cls-6" d="M740.43,188.56c-6.4-5.6-18.5-9.1-27.9-9.1-7.4,0-13,2.1-13,6.9,0,12.2,49.3,3,49.3,30.9,0,15.4-16,21.6-33.4,21.6-14.2,0-29.4-4.1-37.9-10.7l8.3-14c6.6,6.1,20.7,9.9,31.3,9.9,7.4,0,13.2-2,13.2-6.4,0-12.7-49.1-3.9-49.1-31.6,0-15.4,14.4-21.4,30.6-21.4,13.4,0,28,4,36.8,10.3l-8.2,13.6Z"/>
      <path class="cls-6" d="M825.03,222.46v14.1h-63.1v-70h62.4v14.1h-45.5v13.9h38.8v14h-38.8v13.9h46.2Z"/>
      <path class="cls-3" d="M865.43,166.56h16.9v46.6c0,18.6-15.1,25.6-28.9,25.6-8.3,0-16.2-2.6-20.2-6.6l4.7-15.2c3.8,3.3,9.3,5.3,14.3,5.3,7,0,13.2-3.9,13.2-13.5v-42.2Z"/>
      <path class="cls-3" d="M895.32,166.56h16.9v41.4c0,10.1,9.2,15.2,18.5,15.2s18.5-5.1,18.5-15.2v-41.4h16.9v41.4c0,20.7-17.7,31.1-35.4,31.1s-35.4-10.4-35.4-31.1v-41.4Z"/>
      <path class="cls-3" d="M980.12,166.56h16.9l27.1,47.2,27.1-47.2h16.9v70h-16.9v-41.6l-24,41.6h-6.3l-23.9-41.6v41.6h-16.9v-70Z"/>
      <path class="cls-3" d="M1083.02,166.56h37.9c15.3,0,23,11.4,23,22.8s-7.7,22.8-23,22.8h-21v24.4h-16.9v-70ZM1099.92,198.06h19.2c5.6,0,8.4-4.3,8.4-8.7s-2.8-8.7-8.4-8.7h-19.2v17.4Z"/>
    </g>
  </g>
</svg>